<?xml version="1.0" standalone="no"?>
<!DOCTYPE svg PUBLIC "-//W3C//DTD SVG 20010904//EN"
 "http://www.w3.org/TR/2001/REC-SVG-20010904/DTD/svg10.dtd">
<svg version="1.0" xmlns="http://www.w3.org/2000/svg"
 width="1280.000000pt" height="640.000000pt" viewBox="0 0 1280.000000 640.000000"
 preserveAspectRatio="xMidYMid meet">
<metadata>
Created by potrace 1.15, written by Peter Selinger 2001-2017
</metadata>
<g transform="translate(0.000000,640.000000) scale(0.100000,-0.100000)"
fill="#e91e63" stroke="none">
<path d="M2053 5789 c-281 -47 -638 -372 -1154 -1049 -132 -174 -262 -357
-494 -695 -109 -159 -239 -348 -289 -420 -49 -71 -96 -148 -104 -170 -47 -138
88 -276 229 -233 61 18 97 58 239 267 447 658 642 932 839 1180 310 390 580
656 736 727 91 40 90 40 142 -14 100 -103 166 -294 205 -592 17 -134 16 -851
-1 -1200 -16 -312 -17 -918 -2 -1080 41 -438 135 -732 295 -918 178 -207 393
-292 737 -293 208 0 382 43 594 146 304 147 525 330 1025 846 298 309 512 515
615 594 70 53 182 125 196 125 15 0 72 -55 108 -104 100 -136 191 -312 381
-740 194 -438 242 -537 305 -631 123 -186 278 -275 476 -275 237 0 429 103
849 455 388 326 493 404 648 478 67 32 98 41 156 45 166 10 316 -45 446 -165
109 -101 183 -204 395 -553 174 -285 268 -411 407 -546 194 -188 387 -290 656
-346 90 -19 140 -22 312 -22 264 -1 461 28 704 103 546 170 948 478 1061 815
82 243 9 526 -189 743 -28 31 -65 62 -83 70 -81 33 -186 1 -228 -70 -53 -92
-41 -160 49 -267 26 -30 61 -84 79 -120 70 -141 30 -287 -122 -439 -177 -177
-467 -320 -811 -401 -187 -43 -279 -54 -480 -53 -167 0 -206 3 -272 21 -325
89 -473 229 -783 742 -173 286 -268 422 -368 527 -221 231 -450 334 -747 336
-144 1 -209 -13 -337 -73 -159 -74 -299 -175 -648 -465 -126 -105 -266 -218
-310 -251 -150 -113 -295 -189 -380 -200 -106 -13 -174 93 -438 686 -269 605
-377 794 -539 945 -156 146 -311 171 -489 80 -235 -119 -429 -288 -872 -758
-373 -394 -548 -555 -759 -694 -99 -65 -244 -138 -332 -168 -249 -82 -565 -45
-692 81 -124 124 -195 333 -236 694 -16 149 -16 819 1 1190 17 358 18 907 2
1080 -42 460 -139 726 -330 902 -127 117 -240 153 -398 127z"/>
</g>
</svg>
